# xmcd CD database file
#
# Track frame offsets:
#	150
#	22857
#	37162
#	54157
#	70282
#	90317
#	112740
#	134467
#	150410
#	171822
#	190152
#	211160
#	224550
#	242025
#	263470
#	281352
#	297692
#	314690
#
# Disc length: 4498 seconds
#
# Revision: 0
# Processed by: cddbd v1.5.1PL0 Copyright (c) Steve Scherf et al.
# Submitted via: CDex 1.51
#
DISCID=fe119012
DTITLE=石川ひとみ - 石川ひとみBOX~78-86ぼくらのベスト~ DISC2 [LIMITED EDITION]
DYEAR=2002
DGENRE=JPop
TTITLE0=メモリー MEMORY /（19th シングル）
TTITLE1=恋はダイスまかせ /（19th シングル c/w）
TTITLE2=アモーレ /（20th シングル）
TTITLE3=Melody of Memory /（20th シングル c/w）
TTITLE4=裸足でダンス /（21th シングル）
TTITLE5=Deja-vu /（21th シングル c/w）
TTITLE6=夢回帰線 /（22th シングル）
TTITLE7=誘われ上手 /（22th シングル c/w）
TTITLE8=秘密の森 /（23th シングル）
TTITLE9=KA･KU･RE･N･BO /（23th シングル c/w）
TTITLE10=サムシング・フォーリン・ダウン /（アルバム「くるみ割り人形」より）
TTITLE11=今でも愛を Still Falling In Love /（アルバム「ひとみ…」より）
TTITLE12=Do You Love Me? /（アルバム「夢模様」より）
TTITLE13=マリー /（アルバム「夢模様」より）
TTITLE14=守ってあげたい /（アルバム「ジュ・テーム」特典ライブシングルより）
TTITLE15=エンドレス メモリー /（アルバム「キャンパス ライブ」より）
TTITLE16=坂道 /（アルバム「キャンパス ライブ」より）
TTITLE17=メモリー（English Version） /（アルバム「best Memories」より）
EXTD=YEAR: 2002
EXTT0=
EXTT1=
EXTT2=
EXTT3=
EXTT4=
EXTT5=
EXTT6=
EXTT7=
EXTT8=
EXTT9=
EXTT10=
EXTT11=
EXTT12=
EXTT13=
EXTT14=
EXTT15=
EXTT16=
EXTT17=
PLAYORDER=
